<?xml version="1.0" encoding="UTF-8"?>
<svg version="1.1" xmlns="http://www.w3.org/2000/svg" width="2000" height="2000">
<path d="M0 0 C660 0 1320 0 2000 0 C2000 660 2000 1320 2000 2000 C1340 2000 680 2000 0 2000 C0 1340 0 680 0 0 Z " fill="#000000" transform="translate(0,0)"/>
<path d="M0 0 C2.36551824 0.00294756 4.7310378 0.0049836 7.09655762 0.00610352 C15.7818398 0.01650825 24.4670939 0.04443048 33.15234375 0.0703125 C52.60171875 0.1115625 72.05109375 0.1528125 92.08984375 0.1953125 C92.08984375 47.3853125 92.08984375 94.5753125 92.08984375 143.1953125 C58.92484375 143.6903125 58.92484375 143.6903125 25.08984375 144.1953125 C3.95788337 146.68142549 -12.27858806 150.6030858 -26.91015625 166.1953125 C-39.5139118 182.30556036 -43.07483816 203.35473245 -43.04818726 223.35185242 C-43.05100854 224.22858968 -43.05382982 225.10532694 -43.05673659 226.008632 C-43.06501625 228.9233257 -43.06641519 231.83798109 -43.06787109 234.75268555 C-43.07254476 236.85309454 -43.07768923 238.95350252 -43.08326721 241.0539093 C-43.09451922 245.57015067 -43.10296788 250.08638556 -43.10938644 254.60263634 C-43.12012559 261.77367432 -43.14039112 268.94466608 -43.1625061 276.11567688 C-43.22421545 296.50605112 -43.27822696 316.89642333 -43.31152344 337.28686523 C-43.33000291 348.55445693 -43.35910991 359.82197157 -43.39952815 371.08950645 C-43.42039117 377.03495254 -43.43602536 382.98030238 -43.43833542 388.92578697 C-43.47010411 452.01337776 -43.47010411 452.01337776 -51.35205078 482.06445312 C-51.82156673 483.8570757 -52.2583836 485.65821733 -52.6875 487.4609375 C-58.08134821 509.29166043 -69.41349304 529.03977755 -84.91015625 545.1953125 C-85.668125 546.01644531 -86.42609375 546.83757813 -87.20703125 547.68359375 C-97.49279537 558.4903688 -109.84660901 566.18703463 -122.91015625 573.1953125 C-124.00714844 573.79085937 -125.10414063 574.38640625 -126.234375 575 C-135.79761478 579.99820894 -145.74315827 583.62927589 -155.91015625 587.1953125 C-155.91015625 591.8153125 -155.91015625 596.4353125 -155.91015625 601.1953125 C-154.56566406 601.64519531 -153.22117187 602.09507812 -151.8359375 602.55859375 C-132.70325449 609.13240526 -114.79230946 617.53657855 -98.91015625 630.1953125 C-98.32685547 630.65518555 -97.74355469 631.11505859 -97.14257812 631.58886719 C-75.16790476 649.09511992 -60.61698295 672.1900905 -52.91015625 699.1953125 C-52.62060059 700.18289551 -52.62060059 700.18289551 -52.32519531 701.19042969 C-42.98948973 733.77073139 -43.32506531 767.79482955 -43.4014461 801.36849761 C-43.40964363 807.22545815 -43.39253483 813.08234569 -43.37770081 818.93928528 C-43.34721949 832.49990926 -43.34536763 846.06045708 -43.34735107 859.62110901 C-43.34875451 876.92029423 -43.33810433 894.21942159 -43.29877335 911.518565 C-43.28640867 917.31590701 -43.28052415 923.11310167 -43.2902813 928.91045189 C-44.5179299 970.52443212 -44.5179299 970.52443212 -33.91015625 1010.1953125 C-33.43449219 1011.23042969 -32.95882813 1012.26554687 -32.46875 1013.33203125 C-25.38881845 1027.47260298 -13.00706003 1034.85920459 1.46484375 1040.0703125 C30.33942084 1048.11732579 63.61698887 1044.77034452 92.08984375 1045.1953125 C92.08984375 1092.3853125 92.08984375 1139.5753125 92.08984375 1188.1953125 C65.35984375 1188.2571875 65.35984375 1188.2571875 38.08984375 1188.3203125 C32.51335937 1188.33852051 26.936875 1188.35672852 21.19140625 1188.37548828 C14.25390625 1188.38452148 14.25390625 1188.38452148 10.98144531 1188.38619995 C8.74999182 1188.38922275 6.51854109 1188.39615279 4.28710938 1188.40646362 C-15.882455 1188.49480501 -35.96451336 1187.63022514 -55.91015625 1184.4453125 C-56.97427734 1184.27757324 -58.03839844 1184.10983398 -59.13476562 1183.93701172 C-70.57198734 1182.04713412 -81.75847044 1179.34144146 -92.91015625 1176.1953125 C-94.09134033 1175.86756836 -94.09134033 1175.86756836 -95.29638672 1175.53320312 C-122.53944624 1167.79538854 -147.14939214 1153.28182144 -167.91015625 1134.1953125 C-168.70421875 1133.48375 -169.49828125 1132.7721875 -170.31640625 1132.0390625 C-182.2839192 1120.76531842 -191.50827151 1106.77981928 -198.91015625 1092.1953125 C-199.25385254 1091.52564453 -199.59754883 1090.85597656 -199.95166016 1090.16601562 C-218.9815382 1052.69564103 -224.23023249 1011.15966518 -224.18139648 969.63452148 C-224.18579442 967.13041008 -224.19110041 964.62630013 -224.19723511 962.12219238 C-224.20865116 956.77015043 -224.21438211 951.41814971 -224.2151165 946.06609917 C-224.21645511 938.30765185 -224.23167814 930.54927495 -224.25061167 922.79085279 C-224.28131853 910.16990345 -224.30554623 897.54895232 -224.32348633 884.92797852 C-224.32509535 883.79953741 -224.32509535 883.79953741 -224.32673687 882.64829952 C-224.33855721 874.25540279 -224.34876638 865.86250533 -224.35717773 857.46960449 C-224.36025222 854.42382811 -224.36334094 851.37805174 -224.36645508 848.33227539 C-224.36760309 847.20478429 -224.36760309 847.20478429 -224.36877429 846.05451559 C-224.381904 833.47333269 -224.40660329 820.89220134 -224.44019848 808.31105667 C-224.46035089 800.58171881 -224.4707971 792.85249157 -224.46820927 785.12312723 C-224.46704165 779.18992919 -224.48132617 773.25682919 -224.50101852 767.3236618 C-224.50657462 764.90795835 -224.50714382 762.4922369 -224.50208092 760.07653236 C-224.45579646 735.38651586 -225.46061662 704.77237554 -243.95703125 685.859375 C-272.75059981 661.32725458 -321.35530599 667.73789334 -353.91015625 667.1953125 C-353.91015625 619.0153125 -353.91015625 570.8353125 -353.91015625 521.1953125 C-323.22015625 520.7003125 -323.22015625 520.7003125 -291.91015625 520.1953125 C-262.10712623 514.97813617 -262.10712623 514.97813617 -239.09765625 496.5703125 C-232.702204 486.55537169 -229.1307881 475.78651694 -226.91015625 464.1953125 C-226.72882896 463.33049664 -226.54750168 462.46568079 -226.36067963 461.57465839 C-224.24782359 450.12530666 -224.61721653 438.56709579 -224.62304688 426.9675293 C-224.61701455 424.52182285 -224.61008826 422.07611848 -224.6023407 419.63041687 C-224.58750373 414.38194753 -224.57849236 409.1335029 -224.57463074 403.88501549 C-224.5688442 396.27068169 -224.55019327 388.65641866 -224.5281902 381.04211638 C-224.49254558 368.65040369 -224.46420673 356.25868695 -224.44189453 343.86694336 C-224.44055954 343.12695541 -224.43922455 342.38696745 -224.4378491 341.62455563 C-224.42842979 336.37730824 -224.41926941 331.13006042 -224.41015625 325.8828125 C-224.39976906 319.90779587 -224.38924612 313.93277952 -224.37841797 307.95776367 C-224.37642186 306.85415697 -224.37642186 306.85415697 -224.37438542 305.72825518 C-224.35183407 293.39249211 -224.32158058 281.05675897 -224.28602552 268.72102672 C-224.26454701 261.14189892 -224.24979278 253.5628177 -224.24418676 245.98366121 C-224.23937579 240.15082773 -224.22448489 234.31805185 -224.20618629 228.48524666 C-224.20037997 226.1168005 -224.19782329 223.74834341 -224.19902611 221.37989044 C-224.20622721 201.5207971 -223.27223366 181.71042559 -220.16015625 162.0703125 C-219.90745972 160.46530884 -219.90745972 160.46530884 -219.6496582 158.82788086 C-214.8133886 129.70470549 -204.47581426 100.1454116 -186.91015625 76.1953125 C-186.19859375 75.18855469 -185.48703125 74.18179688 -184.75390625 73.14453125 C-155.62483322 33.38334656 -108.44932929 11.82749368 -60.69140625 4.34765625 C-56.47076799 3.72145673 -52.2479424 3.11858817 -48.01329041 2.59480286 C-45.88002448 2.32017111 -43.75008451 2.01879881 -41.62368774 1.69525146 C-27.76902491 -0.23461147 -13.96464415 -0.05856758 0 0 Z " fill="#FEFEFE" transform="translate(778.91015625,404.8046875)"/>
<path d="M0 0 C24.8428125 -0.0309375 24.8428125 -0.0309375 50.1875 -0.0625 C55.37364014 -0.071604 60.55978027 -0.08070801 65.90307617 -0.09008789 C72.34631348 -0.09460449 72.34631348 -0.09460449 75.38398743 -0.09544373 C77.45890011 -0.09695685 79.53381203 -0.10042573 81.60871887 -0.10557556 C146.17174781 -0.25749289 213.70046807 8.92324103 262 56 C281.98238758 76.43143 297.33172383 102.37913302 305 130 C305.35505615 131.24861816 305.35505615 131.24861816 305.71728516 132.52246094 C309.03421129 144.35752228 311.54856162 156.20970771 313.3125 168.375 C313.47177979 169.46578857 313.63105957 170.55657715 313.79516602 171.68041992 C316.1735429 189.28827125 316.15702827 206.99297187 316.18945312 224.72631836 C316.19741376 227.16429786 316.2058031 229.602276 316.21458435 232.04025269 C316.23251429 237.25373274 316.24768065 242.4672128 316.26036072 247.68070793 C316.27881271 255.23016798 316.30347071 262.77959865 316.32973462 270.32903511 C316.3723443 282.5986604 316.41150271 294.86829379 316.44775391 307.13793945 C316.44991671 307.86953809 316.45207951 308.60113673 316.45430785 309.35490502 C316.47183577 315.2932347 316.48919172 321.23156488 316.50651073 327.16989517 C316.52168255 332.37148307 316.53691328 337.57307078 316.55224609 342.7746582 C316.55440496 343.50747164 316.55656383 344.24028509 316.55878812 344.99530499 C316.59495655 357.23284426 316.63490508 369.47036838 316.67754889 381.70788676 C316.70360099 389.2359338 316.72628485 396.76397641 316.74453247 404.29204649 C316.75875283 410.05842502 316.77788442 415.82477913 316.79878426 421.59113693 C316.80651318 423.94892324 316.81259452 426.30671564 316.81687737 428.66451073 C316.82296656 431.89148004 316.83503494 435.11837592 316.84851074 438.34532166 C316.84880673 439.26984837 316.84910272 440.19437508 316.84940767 441.14691776 C316.96447545 461.94847393 320.90108241 486.72338344 336.02734375 502.33203125 C365.82504946 527.52731905 410.91820705 520.42488864 446 521 C446 569.18 446 617.36 446 667 C425.87 667.33 405.74 667.66 385 668 C356.20175583 672.19238641 356.20175583 672.19238641 333.2578125 689.1484375 C317.32483197 710.82549684 316.69863069 736.17087791 316.72875977 761.94213867 C316.72436538 764.44076201 316.71906065 766.93938388 316.71292114 769.43800354 C316.70147116 774.79557049 316.69577195 780.15309603 316.69503975 785.51067162 C316.69370357 793.28703196 316.6784986 801.06332168 316.65954458 808.83965687 C316.62878102 821.50076181 316.60458485 834.16186855 316.58666992 846.82299805 C316.58559724 847.57874944 316.58452456 848.33450084 316.58341938 849.11315379 C316.57162354 857.52634166 316.56141416 865.93953026 316.55297852 874.35272217 C316.54990475 877.39587404 316.54681589 880.4390259 316.54370117 883.48217773 C316.54293583 884.23305045 316.54217049 884.98392317 316.54138196 885.75754961 C316.52821668 898.36008763 316.50346135 910.96257462 316.46995777 923.56507474 C316.44987157 931.30249938 316.43934974 939.03981415 316.44194698 946.77726505 C316.44312219 952.7368351 316.42873803 958.69627129 316.40913773 964.65581322 C316.40361721 967.07095726 316.40297822 969.48611922 316.40807533 971.90126419 C316.46247321 1000.73937087 313.72190097 1029.40597184 305 1057 C304.78617676 1057.68771484 304.57235352 1058.37542969 304.35205078 1059.08398438 C295.58291029 1087.13038148 282.33368543 1110.66330767 262 1132 C261.33355469 1132.71929688 260.66710938 1133.43859375 259.98046875 1134.1796875 C238.36725702 1156.83943369 207.51785217 1169.52654648 178 1178 C177.10539062 1178.26425781 176.21078125 1178.52851562 175.2890625 1178.80078125 C162.18240133 1182.54828701 148.78065603 1184.7220388 135.24609375 1186.171875 C134.43717619 1186.25860222 133.62825863 1186.34532944 132.79482841 1186.43468475 C106.64451474 1189.12864655 80.31159456 1188.42240785 54.0625 1188.25 C36.221875 1188.1675 18.38125 1188.085 0 1188 C0 1140.81 0 1093.62 0 1045 C22.11 1044.67 44.22 1044.34 67 1044 C86.30254081 1041.10461888 107.15293768 1037.29156454 120 1021 C134.12461186 1000.79141031 135.45941749 976.79382281 135.40063477 952.98095703 C135.4063935 950.84476338 135.41348283 948.70857298 135.42178345 946.5723877 C135.43677269 942.01152659 135.44268157 937.45078161 135.44125557 932.88989639 C135.43920194 925.65747981 135.45892191 918.42521652 135.48143005 911.19284058 C135.52222186 897.13904914 135.54095983 883.0852703 135.55760193 869.03143311 C135.5800212 851.1510479 135.61380313 833.27069898 135.66480106 815.39037216 C135.6845527 808.22165943 135.69429122 801.05302789 135.69575322 793.88428903 C135.69853132 789.40150672 135.70942107 784.9187683 135.72226334 780.43600464 C135.72649106 778.38074024 135.7274389 776.3254656 135.72458839 774.27019882 C135.70295131 756.62621378 136.82543289 739.16082271 139.8125 721.75 C140.06688843 720.25279419 140.06688843 720.25279419 140.32641602 718.7253418 C145.3769827 690.31675928 156.92712644 663.9398083 177 643 C177.79664063 642.12859375 178.59328125 641.2571875 179.4140625 640.359375 C197.14080063 621.61508997 222.99893828 607.25026543 248 601 C248.33 596.38 248.66 591.76 249 587 C247.5975 586.690625 246.195 586.38125 244.75 586.0625 C227.51495808 581.36405834 210.6967232 572.14196958 196.125 562 C195.07179565 561.27043091 195.07179565 561.27043091 193.99731445 560.52612305 C189.18590846 557.09431116 185.07046471 553.27458831 181 549 C180.175 548.175 179.35 547.35 178.5 546.5 C177.675 545.675 176.85 544.85 176 544 C175.46632813 543.50113281 174.93265625 543.00226562 174.3828125 542.48828125 C169.46961027 537.80436179 165.68312686 532.68985292 162 527 C161.44570312 526.16339844 160.89140625 525.32679688 160.3203125 524.46484375 C139.68121891 491.4137607 135.86110619 450.70294562 135.84228516 412.64624023 C135.83760817 410.5093119 135.83246317 408.37238455 135.82688904 406.23545837 C135.81566824 401.65487704 135.80720526 397.07430198 135.80076981 392.49371147 C135.79001682 385.23268646 135.76975273 377.97170684 135.74765015 370.71070862 C135.68597088 350.07009975 135.63178458 329.42949429 135.59863281 308.78881836 C135.58021729 297.37260291 135.55119792 285.95646444 135.5106281 274.54030567 C135.48967985 268.51363632 135.47411818 262.48706342 135.47182083 256.46035576 C135.46965432 250.78436876 135.45358348 245.10858279 135.42743111 239.43265724 C135.4203132 237.3656971 135.41809998 235.2987124 135.42153358 233.23174286 C135.45490607 209.29522797 133.94833727 181.74360073 116.75 163.1875 C86.2512683 135.26995272 36.01952849 143.52202215 0 143 C0 95.81 0 48.62 0 0 Z " fill="#FEBC58" transform="translate(1129,407)"/>
</svg>
